<svg xmlns="http://www.w3.org/2000/svg" width="760" height="220" viewBox="0 0 760 220" role="img" aria-label="JACOBI">
  <title>JACOBI</title>
  <defs>
    <linearGradient id="bg" x1="0" y1="0" x2="0" y2="1">
      <stop offset="0" stop-color="#16213f"/>
      <stop offset="1" stop-color="#1d2c54"/>
    </linearGradient>
  </defs>
  <rect width="760" height="220" rx="18" fill="url(#bg)"/>
  <!-- Wordmark (232x30 brand viewBox) scaled 2.4x and centred. -->
  <g transform="translate(101.6,74) scale(2.4)" fill="none" stroke-width="3" stroke-linecap="square" stroke-linejoin="miter">
    <!-- J -->
    <path d="M 6 3 L 24 3 M 18 3 L 18 21 Q 18 27 12 27 Q 6 27 6 22" stroke="#eceef3"/>
    <!-- Λ (A as a clean triangle, no crossbar) -->
    <path d="M 36 27 L 50 3 L 64 27" stroke="#eceef3"/>
    <!-- C -->
    <path d="M 94 7 A 10 10 0 1 0 94 23" stroke="#eceef3"/>
    <!-- [ (cobalt) -->
    <path d="M 120 3 L 110 3 L 110 27 L 120 27" stroke="#6e92ff"/>
    <!-- ] (cobalt) -->
    <path d="M 130 3 L 140 3 L 140 27 L 130 27" stroke="#6e92ff"/>
    <!-- B -->
    <path d="M 152 3 L 152 27 M 152 3 L 164 3 Q 171 3 171 9 Q 171 15 164 15 L 152 15 M 164 15 Q 173 15 173 21 Q 173 27 164 27 L 152 27" stroke="#eceef3"/>
    <!-- I -->
    <path d="M 186 3 L 208 3 M 197 3 L 197 27 M 186 27 L 208 27" stroke="#eceef3"/>
  </g>
</svg>
